<?xml version="1.0" encoding="UTF-8" standalone="no"?>
<svg
   id="splitsvg"
   version="1.1"
   width="368.51193"
   height="204.74886"
   sodipodi:docname="logo.svg"
   inkscape:version="1.4.2 (ebf0e940d0, 2025-05-08)"
   xmlns:inkscape="http://www.inkscape.org/namespaces/inkscape"
   xmlns:sodipodi="http://sodipodi.sourceforge.net/DTD/sodipodi-0.dtd"
   xmlns="http://www.w3.org/2000/svg"
   xmlns:svg="http://www.w3.org/2000/svg">
  <defs
     id="defs1" />
  <sodipodi:namedview
     id="namedview1"
     pagecolor="#505050"
     bordercolor="#eeeeee"
     borderopacity="1"
     inkscape:showpageshadow="0"
     inkscape:pageopacity="0"
     inkscape:pagecheckerboard="0"
     inkscape:deskcolor="#505050"
     inkscape:zoom="3.4971014"
     inkscape:cx="162.70617"
     inkscape:cy="84.355574"
     inkscape:window-width="2550"
     inkscape:window-height="1400"
     inkscape:window-x="0"
     inkscape:window-y="0"
     inkscape:window-maximized="1"
     inkscape:current-layer="splitsvg" />
  <g
     id="svgg"
     transform="translate(-45.194766,-10.828605)" />
  <path
     id="path0"
     d="m 187.98823,0.53039531 c -2.95167,1.85902199 -5.54899,5.45573999 -8.487,8.29599999 -2.22518,2.7299387 -4.45958,3.9198007 -6.277,5.9599997 -1.94098,2.5023 -4.35024,4.899766 -6.772,6.421 -0.50347,2.028484 -4.32455,3.74978 -4.70625,5.7705 -3.32134,1.13783 -3.72499,3.436323 -6.78475,5.1775 -2.71336,-1.544723 -5.76062,-5.609676 -9.20838,-8.214 -3.25398,-4.35645 -7.31056,-6.359696 -10.16762,-10.717 -6.98982,-3.8161117 -11.73087,2.618881 -15.118,5.155 -1.88662,1.7183 -3.69724,2.859624 -5.716,4.617 -2.97938,2.955318 -6.05353,5.468638 -8.339,7.797 -2.4252,1.017644 -2.60945,3.020498 -5.905,4.0525 -0.14656,1.831504 -4.639256,3.950545 -6.458996,6.4415 -3.22513,2.790872 -6.57441,5.615397 -10.193,8.333 -1.21703,0.578667 -7.76222,8.355859 -1.148,6.589 2.6642,-2.713548 6.22569,-4.251009 8.107,-6.459 3.44087,-2.5373 6.33867,-4.350558 8.62862,-7.10625 1.879856,-0.558011 4.242936,-2.866533 6.631376,-4.92075 2.68816,-1.514135 3.48884,-2.984714 6.593,-4.781 1.27859,-1.788742 6.02557,-4.450416 6.869,-5.707 1.71635,-2.129746 4.73492,-3.490858 6.022,-5.102 8.03556,-7.641308 3.1127,7.854638 1.672,11.132 -1.48634,4.063357 -2.38637,8.715035 -4.69725,12.089125 -0.5347,5.25842 -5.85123,9.304658 -4.92075,14.5735 7.24108,1.373398 13.14312,-5.681413 19.416,-7.517625 5.75918,-2.898354 10.43599,-3.458336 17.63,-4.33 9.76861,0.0361 0.98358,-10.525563 7.875,-13.586 4.36796,-4.542274 8.74956,-8.442466 12.457,-13.029 3.16004,-1.274814 3.42507,-4.934603 6.119,-5.533 1.13744,-2.013581 2.60935,-3.696153 4.89187,-4.900125 1.2832,-2.8531207 3.60595,-4.7387197 5.48613,-1.9428747 2.04341,2.0388647 3.68138,4.1851027 5.922,7.4209997 2.37307,2.057577 4.01626,6.560545 6.99,9.187 2.49874,2.537896 7.45944,4.601369 8.136,7.109125 3.63767,1.478785 4.14982,3.636655 7.793,6.253875 4.47075,4.7433 10.3715,10.116268 13.475,14.254 2.20443,1.917784 6.505,6.955821 8.964,2.739 1.76481,-4.032179 3.02892,-6.328224 5.271,-8.87 0.80341,-2.711562 4.93048,-4.092694 6.88463,-2.35275 1.60819,2.650819 6.53752,4.259716 7.04137,5.82975 3.25876,1.610314 7.68941,4.687941 10.932,6.644 1.99073,0.913709 6.59673,3.926789 8.57988,4.492375 4.0698,5.745191 11.09052,-0.464913 6.21212,-3.562375 -1.15974,-1.523387 -3.90866,-3.617992 -5.161,-5.419 -2.19208,-1.020933 -3.60134,-4.730085 -5.78012,-5.096 -1.9706,-3.441308 -3.5353,-3.556452 -5.93488,-6.231 -3.86858,-2.65769 -6.39359,-7.354358 -10.84,-10.001 -3.50781,-3.346955 -6.59066,-7.527425 -10.695,-10.022 -3.03514,-2.30806 -7.38627,-0.0917 -10.4295,1.97425 -1.34272,1.84716 -5.57439,3.360214 -6.19163,4.974 -3.9695,1.636556 -8.9734,7.279279 -12.30387,1.51475 -3.55914,-1.986955 -5.66248,-6.379007 -9.044,-8.463 -3.8346,-4.209563 -8.00821,-8.259106 -12.026,-12.5719997 -2.33328,-2.210323 -3.75397,-4.994838 -6.126,-7.024 -0.87485,-0.679526 -2.30108,-2.86564139 -5.168,-1.33899999 z m 54.681,28.46099969 c -2.3804,2.833069 -1.94079,9.06386 -4.333,12.69375 0.35973,7.220176 -3.7342,2.781049 -4.979,1.04925 -2.34083,-3.085764 -3.8374,-6.838401 0.334,-8.574 3.57632,-2.755277 4.58728,-3.786765 8.13,-5.918 -0.17299,-1.145783 1.62315,0.600433 0.848,0.749 z m -43.109,40.728 c -10.21934,-1.28476 -3.11419,12.281006 -5.15037,18.965105 -0.10902,13.77178 0.0921,27.61198 -1.67063,41.2439 -3.30089,7.17435 10.79339,7.95599 12.32025,3.0675 1.88794,2.09787 5.62128,3.95008 10.25775,4.0595 4.61026,0.0705 7.50351,-1.7539 10.844,-3.321 2.18048,-1.48213 3.5338,-3.38276 5.33925,-4.96112 2.11026,-4.6718 3.67122,-7.07053 4.58125,-12.66538 0.39237,-7.651 0.59279,-15.24033 -3.9725,-21.277505 -2.17072,-2.15851 -3.70918,-4.35115 -7.778,-4.972 -4.58949,-1.490827 -12.39739,0.25846 -15.361,3.99 -2.86492,-8.265115 7.77255,-29.574198 -9.41,-24.129 z m -189.587996,1.746 C -6.946043,67.787049 5.95401,89.154603 1.843234,97.492395 1.135684,109.19669 1.711118,121.02014 0,132.48613 c 2.818664,5.65344 19.191886,6.10767 15.631328,-2.99645 0.499824,-4.39702 -4.041755,-17.00685 2.135906,-17.15528 5.630962,-0.64402 5.197634,7.93671 8.429,9.465 1.769835,3.9313 3.564517,6.96247 5.825,10.69 2.552052,5.13592 9.974639,4.53109 15.974,2.339 5.585229,-1.75321 -1.180632,-5.75054 -1.621875,-7.79425 -2.550971,-2.19761 -4.301259,-5.42277 -6.223125,-9.13175 -2.064609,-2.46172 -3.748951,-4.52055 -5.173,-8.047 -3.085702,-2.02794 5.018883,-4.02575 6.51,-6.876 4.759613,-5.010785 5.363225,-11.199495 4.807,-18.193005 -1.069444,-3.39139 -3.157553,-6.313793 -4.715,-8.193 -3.992808,-2.901776 -9.694663,-4.953759 -16.146375,-5.404125 -5.138356,0.06452 -10.367227,-0.410456 -15.460625,0.276125 z m 14.922,11.359 c 6.589211,0.555333 8.925702,9.89922 4.8145,14.3325 -2.003151,4.759805 -8.906743,3.954435 -13.9455,4.486505 -0.273752,-6.443305 1.039483,-12.698339 0.668,-19.154005 2.794657,0.181312 5.757787,-0.387083 8.463,0.335 z m 274.968996,6.53 c -4.54886,0 -7.8533,3.16446 -10.381,6.164 -1.80608,2.50134 -3.43693,4.3418 -5.058,7.239005 -2.51038,6.36228 -3.08191,14.39772 -1.50863,21.62675 1.8962,3.86817 2.99612,5.35523 6.58163,8.44025 4.02387,3.18742 10.8403,4.76978 16.912,3.874 3.84921,-0.80476 7.62987,-0.95026 10.14537,-3.80088 5.60991,-3.39786 2.45758,-14.77053 -3.99937,-8.79412 -2.94712,3.21367 -12.844,1.49039 -13.942,-0.856 -3.79633,-3.48587 -1.78448,-7.08123 4.099,-5.345 7.7433,-1.45822 20.46194,2.67367 18.65041,-8.7707 0.63264,-6.93927 -0.34453,-12.756135 -5.71141,-16.397305 -3.25042,-4.168751 -9.87215,-3.38 -15.788,-3.38 z m 42.848,5.166 c -3.03479,3.85803 1.18862,-4.95617 -6.44271,-4.95617 -14.6897,0 -8.4799,11.971255 -8.4799,20.343365 0,7.96241 -5.87345,21.69875 1.62461,25.72031 6.47497,0.67161 13.20357,1.50427 11.071,-6.69656 0.14765,-8.97589 -1.33618,-19.3927 5.07162,-26.60644 4.75068,-3.732195 12.29433,-0.19723 9.89726,8.74876 0,8.33916 -8.31388,27.61617 6.26615,24.63086 13.48096,-0.41975 1.94581,-21.21825 6.38197,-30.16312 -0.12623,-5.34187 -0.25103,-10.892015 -4.9,-14.254005 -3.51396,-2.527748 -19.06258,0.30818 -20.49,3.233 z m -275.277996,-4.569 c -4.96113,1.06618 -7.27164,2.92622 -10.69,6.545 -2.470155,2.63206 -4.497531,5.479275 -4.90175,8.419385 -2.361825,6.20189 -2.244318,17.764 0.66975,22.12462 1.555311,3.87116 6.44824,7.59097 9.82,8.221 4.14686,2.55796 13.69338,2.16204 18.787,-0.191 7.94763,0.76132 8.60516,-17.8234 1.237,-11.044 -3.99736,1.52555 -12.17294,4.1936 -15.97,-1.162 -7.37071,-7.90367 6.52202,-3.64524 10.82887,-5.57013 10.02336,2.71303 15.3826,-5.6818 12.26813,-15.01687 -0.74244,-4.193965 -3.92972,-7.518495 -5.49,-10.018635 -3.95767,-2.8904 -11.21416,-3.133208 -16.559,-2.30737 z m 41.282996,0 c -4.97523,-0.16547 -5.52978,3.51738 -8.793996,4.26062 -2.19602,2.86902 -3.73367,4.95697 -4.872,8.099385 -2.21457,6.73783 -3.8602,14.34206 -1.335,21.548 0.95204,4.57443 2.8251,6.90707 6.345996,9.633 2.11278,2.38048 8.32129,3.83036 13.475,2.561 7.59159,-5.82654 8.89837,-0.58047 4.565,6.793 -2.1443,2.6527 -10.31165,3.31901 -13.368,0.449 -3.75477,-4.95928 -8.199006,-2.36037 -9.102246,2.14825 -2.8615,5.60066 2.19561,7.6961 6.361116,9.35825 7.17493,1.26518 15.78105,1.57736 22.262,-1.18313 1.36002,-2.03298 4.96107,-3.70314 5.54013,-5.98437 4.67421,-6.77054 4.21307,-14.24437 4.87105,-22.10959 0.0895,-9.68052 -0.56026,-21.82625 2.46995,-29.368415 3.28669,-6.61454 -10.04459,-8.290023 -11.999,-3.972 -2.53562,0.75679 -9.96882,-5.361107 -15.4385,-2.50662 z m 59.385,0 c -4.25668,-0.53179 -6.31423,3.46 -9.062,4.323 0.10738,-2.38335 -6.26036,-7.164847 -13.432,-3.655 -2.02802,8.73644 0.96482,18.195025 -0.891,27.728005 0.44422,5.7543 -5.86337,19.8124 6.496,17.372 13.33815,2.44572 2.16613,-19.3573 7.85212,-26.21762 0.64915,-5.17601 5.02286,-10.389175 11.13124,-7.77074 3.30249,6.26033 0.80164,17.13307 0.80164,25.74736 0,11.19075 15.94384,12.07596 14.21631,3.35231 -3.44013,-15.45608 4.63054,-30.34011 -4.23231,-38.852315 -2.17849,-2.70831 -9.01874,-2.72679 -12.88,-2.027 z m 77.852,0.091 c -3.56374,0.26727 -10.1854,6.06117 -6.137,9.665 1.579,5.198015 4.18735,9.706145 5.299,14.356005 2.16497,3.89116 2.88145,7.4278 4.611,11.626 1.45355,4.71874 4.47212,8.56338 1.891,13.034 -1.54723,2.67987 -4.55675,6.86665 -7.09625,5.53738 -6.25564,-4.17236 -6.54574,2.65609 -7.624,6.72775 0.23611,6.41435 12.2057,5.65021 16.95025,2.65987 2.54677,-2.1293 4.34309,-4.51773 5.997,-6.793 2.5252,-5.97614 6.22074,-12.06079 8.016,-18.158 1.85696,-3.13595 3.83877,-8.63523 5.31212,-12.977 2.23082,-3.02235 4.13327,-9.93331 6.28788,-14.293 3.9199,-6.118645 4.35327,-13.969054 -5.74244,-11.142005 -7.63967,-1.696565 -4.68795,8.9102 -7.62056,13.808005 -2.29456,3.55126 -2.51332,10.17807 -5.359,12.695 -2.10751,-4.84519 -2.59176,-8.30102 -4.168,-12.512 -4.62553,-13.102905 -10.617,-14.234005 -10.617,-14.234005 z m -173.619996,9.04 c 3.99568,1.853325 6.02578,7.136985 1.10681,8.418845 -9.15546,3.92777 -11.4596,-3.10286 -4.67081,-7.41684 2.02365,-0.255145 2.0175,-1.391285 3.564,-1.002005 z m 232.738996,0 c 3.07263,1.696815 4.99906,5.143875 2.521,7.709005 -4.7129,3.04761 -14.89993,1.37383 -9.312,-3.893 1.46694,-2.60225 4.35937,-4.042065 6.791,-3.816005 z m -187.305,1.326005 c 7.06017,3.25023 3.02642,16.43758 1.05112,21.04388 -1.29176,4.16866 -6.84939,5.13637 -9.51412,1.01512 -3.15208,-4.13683 -2.65435,-11.21159 -1.114,-16.592 1.28745,-3.68676 4.97945,-7.329135 9.577,-5.467 z m 101.949,21.215 c -2.76058,4.78146 -8.97226,5.48329 -10.813,2.559 -3.14979,-3.17415 -1.66414,-10.43731 -1.0885,-16.02437 1.95463,-3.47581 2.20563,-8.0429 8.34489,-7.15371 8.29894,0.65155 6.65231,15.19423 3.55661,20.61908 z m -159.328996,42.715 c 0.85765,8.17729 -2.17087,22.89185 -0.28438,29.93232 8.45727,0 17.08687,1.70178 20.80438,-1.98132 5.04751,-1.77063 5.63832,-10.37009 1.448,-13.029 -2.36462,-2.17978 4.68461,-8.49611 -0.445,-11.693 -4.2962,-4.41263 -14.31306,-3.89391 -21.523,-3.229 z m 214.450996,1.15 c -5.23848,10.11313 -16.49369,29.06869 -7.71101,29.06869 10.08067,0 1.98853,-7.10628 10.80376,-7.10628 8.13363,0 -1.09416,7.00119 11.10919,6.97857 7.29004,-0.0133 -2.67314,-18.50733 -7.41924,-28.75688 -2.74461,-2.35726 -2.71722,-2.32226 -6.7827,-0.1841 z m -173.106,1.745 c -5.591096,2.45118 -8.410416,7.1878 -8.016996,13.629 -0.65898,4.23449 0.72486,8.38866 3.00487,10.64712 1.558,1.97728 9.286906,5.17237 12.948876,3.07 11.03973,3.01804 7.87362,-11.75624 0.80083,-5.65701 -5.23376,2.83173 -13.483956,-6.03829 -3.49861,-4.42663 11.80287,4.76817 15.32721,-7.00388 8.56903,-14.39248 -3.47594,-4.03757 -8.95237,-3.60039 -13.808,-2.87 z m 36.606,0 c -4.49589,5.87064 -3.68408,-1.63009 -9.95931,0.334 -1.36684,3.84893 -0.15502,10.2659 -0.52841,15.10386 0.57316,5.45537 -2.67831,14.71052 6.33597,11.90789 1.83478,-5.70745 -2.12375,-15.20585 3.86262,-19.85475 10.48882,4.00976 10.1996,-12.67006 0.28913,-7.491 z m 20.632,0 c -3.47945,1.79419 -5.9589,3.48795 -6.955,6.531 -2.65224,4.04164 -1.38804,12.86924 0.83,16.44 2.4027,7.16315 17.55907,0.48924 13.356,7.208 -4.96147,3.60922 -18.37981,-5.154 -12.131,5.902 6.39771,1.90195 16.29394,2.97827 19.10775,-3.863 4.17404,-3.83526 1.33813,-13.39169 2.05025,-19.53106 -3.64593,-3.25229 -9.84571,-0.283 -7.461,6.13306 -4.62906,6.09486 -11.90343,-2.45057 -9.437,-7.851 0.92815,-4.96468 7.69415,-6.88802 11.33,-3.174 4.54857,4.31141 8.2118,-7.04447 3.58,-6.881 -4.32604,-1.60122 -9.55608,-1.64095 -14.27,-0.914 z m 31.18,0 c -2.25693,1.18451 -5.54933,3.32658 -6.522,5.949 -2.57538,3.27516 -2.8065,11.73619 -0.0746,16.56712 3.08853,4.34884 10.01155,6.45156 16.76163,4.76688 8.60104,1.78224 4.54375,-11.50397 0.2415,-5.69563 -5.40324,1.04123 -10.03695,-1.09561 -11.0745,-4.32637 7.96699,-0.38191 20.95725,3.085 16.85067,-9.49566 -1.08274,-4.97653 -3.72195,-5.99227 -7.86742,-8.03959 -2.73868,0.0863 -5.66034,-0.46199 -8.31525,0.27425 z m 34.744,0 c -7.20828,5.56283 -0.66323,-1.62037 -9.14587,0.334 -3.41996,4.69647 -3.52523,23.79789 1.90262,26.99087 9.2652,-0.98752 -1.90236,-18.74098 8.10637,-21.34462 5.00403,0.2616 4.68837,2.55329 5.46312,7.8988 1.32192,7.55138 -3.83439,13.10792 4.53164,13.02314 5.01203,-0.29948 3.29197,-20.40849 -0.62551,-25.95207 -3.23022,-1.43715 -6.72015,-1.82339 -10.23237,-0.95012 z m 77.951,0 c -4.09771,1.15247 -6.44509,6.63473 -4.566,11.693 2.81343,3.36111 5.65335,4.2532 9.788,5.81 6.45425,2.31577 -3.76011,7.13776 -5.58413,3.29437 -4.59412,-4.05342 -8.17641,3.14324 -4.00787,5.81763 5.4716,1.07217 14.17776,2.37802 17.146,-1.893 5.73242,-4.48505 0.21174,-13.5974 -4.422,-13.923 -9.21066,-0.18576 -5.36601,-9.73041 1.979,-4.006 7.32637,-0.0968 3.23728,-10.80414 -4.654,-7.127 -1.84758,0.35143 -3.87875,-0.41751 -5.679,0.334 z m -231.847996,2.896 c 8.66562,0.63799 8.01225,10.06551 -4.8852,6.60965 -0.99269,-0.57313 -1.88357,-6.60965 4.8852,-6.60965 z m 36.682996,2.783 c 3.36461,0.1059 6.19748,8.23053 -0.58418,6.014 -9.423326,2.91978 -5.28494,-8.13154 0.58418,-6.014 z m 88.929,-0.111 c 8.16972,6.00516 -4.14818,8.88614 -7.127,4.316 0.93602,-2.69777 3.5136,-5.55175 7.127,-4.316 z m 82.53685,3.162 c 6.12748,6.50686 -7.60591,6.5165 -2.25871,-0.07 1.05006,-3.95303 1.41878,-4.009 2.25871,0.07 z m -204.504846,6.192 c 4.50989,2.02502 2.18218,6.793 -3.979,6.793 -6.97651,0 -5.86853,-9.53165 -0.52725,-7.127 1.50924,0.0373 3.09569,-0.31295 4.50625,0.334 z"
     stroke="none"
     fill="#05346a"
     fill-rule="evenodd"
     inkscape:label="path0"
     style="display:inline"
     sodipodi:nodetypes="ccccccccccccccccccccccccccccccccccccccccccccccccccccccccccccccccccccccccccccccccccccccccccccccccccccccccccccccccccccccccccccccccccccccccccccccccccccccccccccccscccccccccccccccsccccccccccccccccccccccccccccccccccccccccccccccccccccccccscccccccsscccccccccccccccccccccccccccccccccc" />
</svg>
