<?xml version="1.0" encoding="UTF-8" standalone="no"?>
<svg
   id="splitsvg"
   version="1.1"
   width="367.90027"
   height="204.99538"
   sodipodi:docname="logo.svg"
   inkscape:version="1.4.2 (ebf0e940d0, 2025-05-08)"
   xmlns:inkscape="http://www.inkscape.org/namespaces/inkscape"
   xmlns:sodipodi="http://sodipodi.sourceforge.net/DTD/sodipodi-0.dtd"
   xmlns="http://www.w3.org/2000/svg"
   xmlns:svg="http://www.w3.org/2000/svg">
  <defs
     id="defs1">
    <filter
       inkscape:label="Electronic Microscopy"
       inkscape:menu="Bevels"
       inkscape:menu-tooltip="Bevel, crude light, discoloration and glow like in electronic microscopy"
       x="-0.060668616"
       y="-0.1088805"
       width="1.1213372"
       height="1.217761"
       style="color-interpolation-filters:sRGB;"
       id="filter16">
      <feGaussianBlur
         stdDeviation="0.5"
         result="result6"
         id="feGaussianBlur12" />
      <feComposite
         operator="in"
         in="result6"
         in2="result6"
         result="result91"
         id="feComposite12" />
      <feBlend
         mode="multiply"
         in="result6"
         result="result2"
         in2="result91"
         id="feBlend12" />
      <feGaussianBlur
         stdDeviation="7"
         result="result3"
         in="result2"
         id="feGaussianBlur13" />
      <feComposite
         in2="result2"
         result="result92"
         id="feComposite13" />
      <feComposite
         operator="in"
         in="result3"
         result="result5"
         in2="result92"
         id="feComposite14" />
      <feGaussianBlur
         stdDeviation="1"
         in="result5"
         id="feGaussianBlur14" />
      <feSpecularLighting
         surfaceScale="2"
         specularConstant="1.5"
         specularExponent="100"
         id="feSpecularLighting14">
        <fePointLight
           x="-5000"
           y="-5000"
           z="20000"
           id="fePointLight14" />
      </feSpecularLighting>
      <feComposite
         operator="arithmetic"
         k1="1"
         in2="result5"
         result="result93"
         id="feComposite15" />
      <feGaussianBlur
         stdDeviation="0.8"
         in="result93"
         result="result9"
         id="feGaussianBlur15" />
      <feComposite
         operator="arithmetic"
         k2="0.1"
         k3="1"
         k1="0.5"
         in2="result9"
         result="result94"
         id="feComposite16" />
      <feBlend
         mode="multiply"
         in2="result94"
         id="feBlend16" />
    </filter>
  </defs>
  <sodipodi:namedview
     id="namedview1"
     pagecolor="#505050"
     bordercolor="#eeeeee"
     borderopacity="1"
     inkscape:showpageshadow="0"
     inkscape:pageopacity="0"
     inkscape:pagecheckerboard="0"
     inkscape:deskcolor="#505050"
     inkscape:zoom="1.7485507"
     inkscape:cx="210.74596"
     inkscape:cy="187.58392"
     inkscape:window-width="1272"
     inkscape:window-height="1400"
     inkscape:window-x="0"
     inkscape:window-y="0"
     inkscape:window-maximized="1"
     inkscape:current-layer="splitsvg" />
  <path
     id="path0"
     d="m 187.98231,0.37577118 c -3.81417,2.40339602 -7.66677,8.38045802 -11.516,11.24099982 -2.57447,2.167549 -4.45328,4.792903 -7.04,7.126 -2.22224,2.015394 -3.75381,3.480769 -5.558,5.463 -2.09327,2.408441 -4.2938,3.490024 -6.018,5.457 -2.71283,4.059669 -5.01023,0.711227 -7.901,-1.893 -5.10351,-5.635059 -10.37963,-10.028236 -15.15,-14.922 -7.13865,-3.5115598 -10.90845,3.416643 -14.644,5.439 -1.69317,2.133052 -3.85643,2.816497 -5.949,5.138 -3.58472,3.141565 -5.74683,5.502122 -8.579,7.618 -1.1985,1.230906 -3.96365,2.987552 -5.225,4.32 -3.758417,3.165849 -8.162797,7.630512 -12.373997,10.766 -3.78766,3.345082 -6.42583,4.471263 -8.567,8.944 3.9102,3.594189 7.38083,-4.040567 10.7685,-4.3885 1.28415,-2.624935 6.31752,-4.463032 7.6945,-6.6565 2.594247,-2.149531 4.761757,-3.220833 7.809997,-6.125 3.12179,-1.816383 3.69494,-3.273509 6.927,-5.115 2.17359,-2.47583 6.56773,-4.758336 7.777,-6.577 3.01215,-2.607154 3.89882,-3.154221 7.144,-5.568 6.00552,-2.461355 -0.39455,12.030615 -1.358,15.51 -1.49407,4.344519 -2.67178,8.081917 -4.899,12.552 -0.5158,3.384549 -7.64096,10.489885 -1.448,11.581 7.5227,-1.819967 13.77098,-7.37326 20.601,-9.576 5.4097,-2.806721 13.85716,-0.648314 19.512,-5.346 -1.67761,-5.748484 -0.21158,-9.524945 4.542,-13.029 4.78274,-4.785727 8.90667,-9.205525 13.585,-13.934 1.82823,-1.83608 2.50128,-3.545848 5.23262,-4.902125 0.21669,-2.007729 4.24571,-3.7630128 4.90138,-5.7738748 2.59841,-0.885191 4.4881,2.8188618 5.791,4.2319998 4.18038,4.40825 6.3819,9.205217 10.351,13.586 2.96449,2.491665 7.27563,5.142913 8.71,7.232 3.03458,1.801889 4.15095,3.751395 7.553,6.472 5.06016,4.96237 10.3001,10.707573 14.359,14.814 2.01651,3.504601 8.04386,5.488242 9.027,-0.901 1.31272,-3.602925 3.3063,-4.584378 4.9,-7.461 2.95717,-4.15464 5.88869,-0.41475 8.574,1.447 4.15821,2.277783 3.71854,3.250985 7.941,5.345 5.47174,3.30801 9.3231,6.252143 15.22175,8.542125 0.93287,3.61426 12.77019,4.067398 7.57225,-2.083125 -0.44191,-1.680476 -4.01291,-3.70137 -5.393,-5.965 -2.88307,-2.449785 -4.65622,-4.720152 -6.967,-6.798 -2.50572,-2.810997 -4.01048,-3.463572 -7.128,-6.725 -5.44524,-5.562498 -12.26365,-11.326684 -18.04,-17.483 -3.61229,-2.688651 -8.24545,-1.843992 -11.284,1.231 -1.95163,1.469 -5.9676,3.582275 -7.424,5.228 -3.78769,2.392366 -8.90393,6.621669 -12.107,1.002 -3.56862,-2.67953 -6.54805,-6.767213 -9.942,-9.697 -4.9208,-5.044477 -10.6184,-10.4271688 -14.694,-15.9209998 -2.64697,-2.033763 -3.03488,-4.8449987 -7.29,-3.44600002 z m 54.681,28.46099982 c -2.19943,3.943279 -3.16785,11.082121 -5.012,16.254 -1.95599,1.549125 -4.15797,-2.469133 -5.571,-4.718 -3.10829,-3.525517 0.38097,-5.615023 3.499,-7.995 2.38694,-0.365557 5.12279,-6.052686 7.084,-3.541 z m -43.109,40.728 c -11.39306,-0.564271 -2.16588,16.741146 -5.1803,24.37863 3.31094,12.739029 -6.73925,34.007689 1.96094,41.417479 7.83653,3.0978 7.33684,-5.63487 12.06836,-0.12811 3.83928,2.57781 12.08192,1.70976 16.485,-0.893 1.66582,-1.60742 4.74345,-2.83867 5.234,-4.566 2.20303,-2.73341 4.22665,-5.87109 4.64525,-9.53413 2.91258,-8.18566 2.23088,-18.4462 -2.66425,-25.563869 -2.17072,-2.15851 -3.70918,-4.35115 -7.778,-4.972 -4.88877,-3.306406 -13.26641,2.83903 -15.63563,3.141 -2.06651,-8.166565 7.6368,-28.663294 -9.13537,-23.28 z m -189.5879965,1.746 c -17.649924,-2.92659 -3.210776,20.23241 -8.451172,29.403969 2.69805,10.9876 -5.643942,26.50523 1.361297,34.69328 16.4008835,5.83587 12.1461985,-7.64094 11.9898745,-18.09288 -2.554969,-9.22948 9.221488,-4.62435 9.354,1.74463 1.580852,3.22927 4.644127,6.33662 5.774,10.163 3.174286,6.00438 7.02171,8.80686 14.829,6.342 6.827084,0.30661 5.927315,-5.90263 1.24,-7.98675 -0.888001,-2.42134 -3.49382,-4.99067 -5.251,-8.27125 -2.021543,-3.65663 -3.649813,-5.23391 -5.894,-9.03 -2.989907,-2.88458 4.623882,-4.25947 6.563,-7.452 4.759613,-5.010779 5.363225,-11.199489 4.807,-18.192999 -1.645595,-4.067555 -3.240203,-7.486093 -6.365,-9.206 -5.317221,-3.98958 -16.038257,-4.869628 -23.974789,-4.446584 -1.990625,0.109327 -4.035043,-0.238932 -5.9822105,0.331584 z m 14.9219995,11.359 c 8.494549,0.833831 8.318573,13.6191 2.689,16.946 -11.799444,6.504079 -13.90831,-1.98614 -11.152,-12.151 -2.007101,-7.375335 3.441058,-4.872253 8.463,-4.795 z m 274.968997,6.53 c -3.79679,2.07293 -8.74836,3.18973 -11.049,7.278 -1.99293,2.27219 -4.42844,5.004009 -5.171,9.234999 -2.56455,6.16136 -2.55224,16.36625 1.429,22.324 1.53675,1.398 4.96108,7.4096 9.11487,6.64975 6.11271,3.90272 15.16066,1.83881 20.68513,-0.34675 5.81111,-1.06156 6.33394,-17.15369 -1.336,-10.468 -2.77067,2.52811 -13.31142,1.63081 -14.72788,-0.34675 -5.34584,-5.39289 0.94184,-6.95411 7.21271,-5.78923 12.13294,1.79498 18.43816,-3.10885 15.28362,-15.88383 -0.16826,-4.883609 -3.69731,-6.918629 -6.16433,-10.447319 -4.67256,-2.27997 -9.70468,-1.92795 -15.27712,-2.20487 z m 50.999,0.005 c -1.85527,1.10354 -7.18506,2.30866 -8.24238,5.70462 -2.98997,1.71891 -0.68134,-8.115171 -7.76462,-4.72762 -17.37481,-1.575675 -1.63362,25.068289 -7.953,35.193999 -5.95871,11.21502 8.48549,11.91749 13.582,9.298 0.63372,-10.85149 -2.50185,-23.54743 5.07162,-32.5035 4.75068,-3.732189 12.30102,1.2645 9.18238,8.7845 -0.18526,10.3002 -6.33286,31.60478 12.2215,23.92937 0.57735,-12.19789 1.90253,-26.91022 -0.1945,-39.531369 -3.14266,-6.22582 -9.48132,-6.26402 -15.903,-6.148 z m -283.428997,0.592 c -6.00837,0.8398 -9.23756,4.97247 -13.233,9.338 -3.139191,4.773119 -4.373933,11.101679 -3.690584,18.198079 -0.294925,6.73169 1.256868,9.93113 5.564584,14.35792 5.50837,4.0286 8.13285,4.65723 15.257,5.21 5.97672,-1.0165 16.73304,-1.40699 15.988,-10.01375 -0.33708,-10.52116 -8.83033,1.98792 -14.986,-1.01025 -4.59509,0.8608 -12.70894,-9.93326 -4.47149,-8.129 7.2288,-1.23594 19.3722,2.57679 21.62049,-5.877 2.2601,-6.85312 -1.31924,-15.573029 -5.564,-19.403999 -2.77151,-3.582054 -11.64077,-3.27759 -16.485,-2.67 z m 41.282997,0 c -4.64493,0.0498 -6.34799,3.38152 -8.871997,4.807 -3.05951,2.73657 -3.82804,5.481989 -5.738,9.560999 -1.51778,7.32886 -2.84892,15.29655 0.61,22.857 0.94672,2.92594 4.34714,5.11696 5.866997,7.296 4.34309,2.09905 12.43611,3.34506 17.852,-0.646 5.2877,-4.34481 0.53862,10.48413 -2.1,10.356 -7.01592,3.79565 -12.41505,-2.54034 -17.721997,-3.897 -2.06625,3.66345 -5.96679,8.67222 -2.004,12.026 7.539387,4.12521 19.189327,4.8787 27.284997,1.229 2.03266,-1.23468 4.02058,-3.69583 6.136,-5.349 3.86516,-7.66771 4.62233,-15.84961 4.65273,-24.70138 -1.1308,-11.26226 1.61706,-22.61141 2.59927,-31.868619 -6.33407,-4.969299 -11.4934,1.81292 -14.615,0.316 -3.51022,-3.339934 -9.4695,-2.28241 -13.951,-1.986 z m 59.385,0 c -4.25668,-0.53179 -6.31423,3.46 -9.062,4.323 0.10738,-2.38335 -6.26036,-7.164847 -13.432,-3.655 -1.64832,10.415689 0.49931,21.798439 -1.16311,33.102689 -6.98429,8.46603 5.7639,16.64034 12.63311,11.10631 1.17182,-10.12212 -1.28293,-22.9652 4.456,-30.954 5.5248,-6.750779 13.48766,0.35764 10.132,8.014 -0.72683,10.37225 -4.48528,30.8958 11.433,23.014 4.56677,-3.41561 -0.26407,-14.4158 1.262,-21.11601 2.09164,-3.93861 1.41322,-14.573919 -1.671,-19.937989 -2.74901,-4.65983 -9.1057,-4.693286 -14.588,-3.897 z m 77.852,0.091 c -9.52962,-1.07985 -8.99857,6.68259 -5.81,11.056999 2.01959,4.55973 3.8349,9.07898 5.241,13.48 2.32986,4.15435 3.00429,8.4246 5.123,13.233 2.26814,4.02155 3.00441,8.30902 1.002,12.139 -2.16887,4.48514 -6.7943,6.03656 -10.691,2.895 -3.23485,0.75406 -5.47264,9.74245 -2.338,11.448 6.37563,3.00612 16.16424,1.56919 19.822,-5.525 2.75794,-3.27411 4.61875,-8.91891 6.904,-13.297 1.7549,-5.03665 3.83336,-8.11614 5.428,-13.339 2.73383,-4.83454 3.40293,-8.4184 5.93,-13.474 1.80478,-5.95714 5.78165,-11.271799 5.791,-17.705999 -6.7634,-0.84374 -15.70118,-3.140091 -14.588,6.459 -1.41394,7.803419 -4.51004,12.236209 -6.05338,19.712869 -3.36446,-3.99226 -3.85784,-8.14677 -4.77162,-12.93487 -2.43613,-2.62759 -2.59038,-11.240489 -5.7395,-14.210379 -1.7595,0.59054 -3.47948,0.14958 -5.2495,0.0624 z m -173.619997,9.04 c 8.0407,3.793699 1.98068,12.203719 -6.69206,8.916029 -3.69288,-1.05013 1.78422,-9.037999 5.38318,-8.277159 -0.16338,-0.97254 0.53048,-1.32587 1.30888,-0.63887 z m 232.738997,0 c 3.25268,1.747709 4.9104,5.452849 2.424,8.001999 -6.87542,3.58264 -14.81477,-0.41803 -7.95838,-5.35625 1.19522,-2.380329 3.89459,-2.661749 5.53438,-2.645749 z m -187.305,1.325999 c 6.91465,3.92136 3.29451,17.08835 0.349,22.393 -2.38994,4.26566 -8.58784,1.99077 -10.37825,-2.517 -0.81649,-5.62346 -2.16269,-16.08972 5.05725,-19.887 l 2.55312,-0.345129 z m 100.668,1.171 c 4.91292,4.33744 3.96778,15.33573 1.281,20.044 0.0146,5.28319 -8.97226,5.48329 -10.813,2.559 -3.06042,-3.55243 -2.27621,-11.55047 -0.34825,-16.48075 0.11841,-5.06977 4.08473,-7.52757 9.88025,-6.67325 z m -158.047997,62.759 c 1.76053,7.93098 -7.503381,30.2618 4.35127,30.1005 6.81333,-7.1e-4 14.55258,1.20144 18.63873,-4.0655 4.37738,-3.3526 -0.30804,-11.20931 -1.755,-12.505 3.18647,-4.28836 2.29183,-9.07824 -1.237,-11.949 -5.73846,-2.23134 -13.41165,-2.48507 -19.998,-1.581 z m 214.450997,1.15 c -2.7401,6.59346 -6.1996,14.37176 -8.672,20.323 -2.63522,4.1379 -4.11029,12.21997 4.73916,8.21708 0.14234,-7.54939 6.39126,-6.70754 12.47684,-5.30208 -1.50029,8.64386 14.30748,6.49415 8.179,2.152 -0.7019,-5.69057 -3.96311,-9.77492 -5.642,-15.765 -2.67761,-5.03633 -2.45941,-12.75163 -11.081,-9.625 z m -173.106,1.745 c -7.458837,2.81058 -8.606227,10.52158 -8.318247,18.18312 0.83634,2.87679 2.79797,5.94226 4.70425,7.13488 3.901427,3.20315 13.249427,3.42821 18.620997,0.714 3.81836,-11.20862 -9.70232,-0.84834 -12.21213,-5.33025 -8.919397,-6.67346 12.59428,-0.26681 14.24213,-5.52575 2.0834,-9.86972 -6.80231,-19.19375 -17.037,-15.176 z m 36.606,0 c -4.29742,5.39617 -4.29946,-1.70896 -10.552,0.334 0.0378,8.946 0.0761,17.892 0.115,26.838 12.25493,3.87537 3.59045,-11.88669 8.352,-17.706 9.59243,0.58479 14.95035,-12.66567 2.085,-9.466 z m 20.632,0 c -3.72903,1.58931 -5.86224,4.21921 -7.327,6.445 -1.41881,5.9327 -1.74936,13.92051 2.541,17.77 5.36393,4.66869 21.63419,2.87913 6.18059,7.33737 -10.1305,-7.79156 -9.97617,9.66816 1.30116,5.79563 6.39935,1.09173 11.69791,-2.6179 13.23525,-7.713 -0.67542,-6.01988 4.56857,-20.25943 -5.23175,-17.942 -1.57307,2.88684 -3.39953,14.65167 -10.39425,6.459 -3.16077,-5.18505 0.29384,-14.48276 7.74062,-12.18563 3.87445,4.8596 9.49684,2.09317 8.49413,-4.31562 -4.27756,-1.59138 -10.84321,-2.95674 -16.53975,-1.65075 z m 31.18,0 c -3.08054,1.21225 -6.55481,4.80403 -7.457,7.461 -2.71392,6.02215 -0.66164,13.57884 2.983,17.525 3.84621,3.00184 19.77255,5.82078 19.705,-1.934 -1.05527,-6.08523 -10.4029,1.93155 -13.976,-3.231 -6.11329,-5.25011 11.61545,-0.97656 14.736,-2.827 1.69903,-7.54456 -0.14888,-14.42066 -6.08,-16.66 -2.95518,-1.35251 -6.83504,-0.66367 -9.911,-0.334 z m 34.744,0 c -4.47873,3.69915 -4.33239,-1.01378 -10.69,0.334 0.51147,7.79017 -3.77833,33.01099 7.06762,24.56187 0.11369,-5.84579 -2.2425,-21.00321 6.85138,-18.10287 5.55295,3.35197 0.18651,13.97751 2.57,20.059 11.26138,2.85589 8.6288,-20.56241 3.889,-25.981 -2.92277,-1.68993 -6.47057,-1.25443 -9.688,-0.871 z m 77.951,0 c -4.09771,1.15247 -6.44509,6.63473 -4.566,11.693 2.79512,3.67886 7.10362,4.48719 10.691,6.317 4.56888,4.4457 -6.62323,4.70488 -9.02,1.812 -8.19238,1.04209 1.4531,12.79411 8.686,7.795 6.44282,0.51583 11.0923,-5.58179 8.463,-12.361 -3.06377,-4.78304 -6.8686,-3.80053 -11.359,-6.792 -1.75438,-8.56874 12.35834,3.87588 11.41762,-5.25488 0.68057,-5.57659 -10.83766,-3.09415 -14.31262,-3.20912 z m -231.847997,2.896 c 8.79165,0.79653 2.15251,9.20579 -4.232,6.458 0.3877,-3.78025 -1.84732,-8.83006 4.232,-6.458 z m 36.682997,2.783 c 4.63837,0.93171 4.99831,8.55924 -2.26888,6.014 -8.073707,2.45139 -2.0456,-9.01754 2.26888,-6.014 z m 88.929,-0.111 c 9.85827,6.59424 -8.20863,9.05974 -6.37675,3.48687 0.47683,-3.44321 3.64303,-3.92576 6.37675,-3.48687 z m 82.183,3.162 c 6.07618,6.96933 -6.87706,7.91412 -2.228,2.184 0.36254,-1.09032 1.69675,-5.68215 2.228,-2.184 z m -204.150997,6.192 c 5.13498,3.06057 -0.87233,9.15808 -5.97475,6.793 -5.2315,-2.06118 -1.16335,-11.04659 5.97475,-6.793 z"
     stroke="none"
     fill="#05346a"
     fill-rule="evenodd"
     sodipodi:nodetypes="cccccccccccccccccccccccccccccccccccccccccccccccccccccccccccccccccccccccccccccccccccccccccccccccccccccccccccccccccccccccccccccccccccccccccccccccscccccccccccccccssccccccccccccccccccccccccccccccccccccccccccccccccccccccccccccccccccccccccccccccccccccccccccccccc"
     style="filter:url(#filter16)" />
</svg>
